<svg width="224" height="165" viewBox="0 0 224 165" fill="none" xmlns="http://www.w3.org/2000/svg">
<path d="M0 164.99V0L54 68.4825V91.1262L19.44 47.0285C19.44 47.0285 20.232 57.93 16.9429 63.5928H30.4102V81.2716H16.9429C16.9429 81.2716 22.9156 92.3833 17.064 104.403H31.1367V122.923H16.7596C16.7596 122.923 23.8909 132.634 16.7596 147.315H32.796V164.994L0 164.99Z" fill="#AC0000"/>
<path d="M63.905 93V68.5H69.575V88.38H81.86V93H63.905Z" fill="#202020"/>
<path d="M81.9789 93L92.8989 68.5H98.4989L109.454 93H103.504L94.5439 71.37H96.7839L87.7889 93H81.9789ZM87.4389 87.75L88.9439 83.445H101.544L103.084 87.75H87.4389Z" fill="#202020"/>
<path d="M111.996 93V68.5H122.601C124.794 68.5 126.684 68.8617 128.271 69.585C129.857 70.285 131.082 71.3 131.946 72.63C132.809 73.96 133.241 75.5467 133.241 77.39C133.241 79.21 132.809 80.785 131.946 82.115C131.082 83.4217 129.857 84.425 128.271 85.125C126.684 85.825 124.794 86.175 122.601 86.175H115.146L117.666 83.69V93H111.996ZM127.571 93L121.446 84.11H127.501L133.696 93H127.571ZM117.666 84.32L115.146 81.66H122.286C124.036 81.66 125.342 81.2867 126.206 80.54C127.069 79.77 127.501 78.72 127.501 77.39C127.501 76.0367 127.069 74.9867 126.206 74.24C125.342 73.4933 124.036 73.12 122.286 73.12H115.146L117.666 70.425V84.32Z" fill="#202020"/>
<path d="M137.733 93V68.5H148.338C150.531 68.5 152.421 68.8617 154.008 69.585C155.595 70.285 156.82 71.3 157.683 72.63C158.546 73.96 158.978 75.5467 158.978 77.39C158.978 79.21 158.546 80.785 157.683 82.115C156.82 83.4217 155.595 84.425 154.008 85.125C152.421 85.825 150.531 86.175 148.338 86.175H140.883L143.403 83.69V93H137.733ZM153.308 93L147.183 84.11H153.238L159.433 93H153.308ZM143.403 84.32L140.883 81.66H148.023C149.773 81.66 151.08 81.2867 151.943 80.54C152.806 79.77 153.238 78.72 153.238 77.39C153.238 76.0367 152.806 74.9867 151.943 74.24C151.08 73.4933 149.773 73.12 148.023 73.12H140.883L143.403 70.425V84.32Z" fill="#202020"/>
<path d="M169.219 93V82.99L170.514 86.42L159.734 68.5H165.754L174.014 82.255H170.549L178.844 68.5H184.409L173.629 86.42L174.889 82.99V93H169.219Z" fill="#202020"/>
<path d="M186.271 78.65L188.581 70.25L189.351 73.435C188.348 73.435 187.52 73.1433 186.866 72.56C186.236 71.9533 185.921 71.1367 185.921 70.11C185.921 69.1067 186.248 68.3017 186.901 67.695C187.555 67.065 188.36 66.75 189.316 66.75C190.296 66.75 191.101 67.065 191.731 67.695C192.361 68.3017 192.676 69.1067 192.676 70.11C192.676 70.4133 192.653 70.7167 192.606 71.02C192.583 71.3 192.501 71.6383 192.361 72.035C192.245 72.4317 192.046 72.9567 191.766 73.61L189.736 78.65H186.271Z" fill="#202020"/>
<path d="M205.153 93.42C203.193 93.42 201.315 93.1633 199.518 92.65C197.722 92.1133 196.275 91.425 195.178 90.585L197.103 86.315C198.153 87.0617 199.39 87.68 200.813 88.17C202.26 88.6367 203.718 88.87 205.188 88.87C206.308 88.87 207.207 88.765 207.883 88.555C208.583 88.3217 209.097 88.0067 209.423 87.61C209.75 87.2133 209.913 86.7583 209.913 86.245C209.913 85.5917 209.657 85.0783 209.143 84.705C208.63 84.3083 207.953 83.9933 207.113 83.76C206.273 83.5033 205.34 83.27 204.313 83.06C203.31 82.8267 202.295 82.5467 201.268 82.22C200.265 81.8933 199.343 81.4733 198.503 80.96C197.663 80.4467 196.975 79.77 196.438 78.93C195.925 78.09 195.668 77.0167 195.668 75.71C195.668 74.31 196.042 73.0383 196.788 71.895C197.558 70.7283 198.702 69.8067 200.218 69.13C201.758 68.43 203.683 68.08 205.993 68.08C207.533 68.08 209.05 68.2667 210.543 68.64C212.037 68.99 213.355 69.5267 214.498 70.25L212.748 74.555C211.605 73.9017 210.462 73.4233 209.318 73.12C208.175 72.7933 207.055 72.63 205.958 72.63C204.862 72.63 203.963 72.7583 203.263 73.015C202.563 73.2717 202.062 73.61 201.758 74.03C201.455 74.4267 201.303 74.8933 201.303 75.43C201.303 76.06 201.56 76.5733 202.073 76.97C202.587 77.3433 203.263 77.6467 204.103 77.88C204.943 78.1133 205.865 78.3467 206.868 78.58C207.895 78.8133 208.91 79.0817 209.913 79.385C210.94 79.6883 211.873 80.0967 212.713 80.61C213.553 81.1233 214.23 81.8 214.743 82.64C215.28 83.48 215.548 84.5417 215.548 85.825C215.548 87.2017 215.163 88.4617 214.393 89.605C213.623 90.7483 212.468 91.67 210.928 92.37C209.412 93.07 207.487 93.42 205.153 93.42Z" fill="#202020"/>
<path d="M80.705 101.5H86.375V126H80.705V101.5ZM69.575 126H63.905V101.5H69.575V126ZM81.125 115.955H69.155V111.16H81.125V115.955Z" fill="#202020"/>
<path d="M104.072 126.42C102.135 126.42 100.338 126.105 98.6816 125.475C97.0483 124.845 95.6249 123.958 94.4116 122.815C93.2216 121.672 92.2883 120.33 91.6116 118.79C90.9583 117.25 90.6316 115.57 90.6316 113.75C90.6316 111.93 90.9583 110.25 91.6116 108.71C92.2883 107.17 93.2333 105.828 94.4466 104.685C95.6599 103.542 97.0833 102.655 98.7166 102.025C100.35 101.395 102.123 101.08 104.037 101.08C105.973 101.08 107.747 101.395 109.357 102.025C110.99 102.655 112.402 103.542 113.592 104.685C114.805 105.828 115.75 107.17 116.427 108.71C117.103 110.227 117.442 111.907 117.442 113.75C117.442 115.57 117.103 117.262 116.427 118.825C115.75 120.365 114.805 121.707 113.592 122.85C112.402 123.97 110.99 124.845 109.357 125.475C107.747 126.105 105.985 126.42 104.072 126.42ZM104.037 121.59C105.133 121.59 106.137 121.403 107.047 121.03C107.98 120.657 108.797 120.12 109.497 119.42C110.197 118.72 110.733 117.892 111.107 116.935C111.503 115.978 111.702 114.917 111.702 113.75C111.702 112.583 111.503 111.522 111.107 110.565C110.733 109.608 110.197 108.78 109.497 108.08C108.82 107.38 108.015 106.843 107.082 106.47C106.148 106.097 105.133 105.91 104.037 105.91C102.94 105.91 101.925 106.097 100.992 106.47C100.082 106.843 99.2766 107.38 98.5766 108.08C97.8766 108.78 97.3283 109.608 96.9316 110.565C96.5583 111.522 96.3716 112.583 96.3716 113.75C96.3716 114.893 96.5583 115.955 96.9316 116.935C97.3283 117.892 97.8649 118.72 98.5416 119.42C99.2416 120.12 100.058 120.657 100.992 121.03C101.925 121.403 102.94 121.59 104.037 121.59Z" fill="#202020"/>
<path d="M121.703 126V101.5H126.393L136.823 118.79H134.338L144.593 101.5H149.248L149.318 126H143.998L143.963 109.655H144.943L136.753 123.41H134.198L125.833 109.655H127.023V126H121.703Z" fill="#202020"/>
<path d="M160.346 111.37H172.141V115.78H160.346V111.37ZM160.766 121.45H174.101V126H155.131V101.5H173.646V106.05H160.766V121.45Z" fill="#202020"/>
<path d="M63.905 159V134.5H75.035C77.695 134.5 80.04 135.013 82.07 136.04C84.1 137.043 85.6867 138.455 86.83 140.275C87.9733 142.095 88.545 144.253 88.545 146.75C88.545 149.223 87.9733 151.382 86.83 153.225C85.6867 155.045 84.1 156.468 82.07 157.495C80.04 158.498 77.695 159 75.035 159H63.905ZM69.575 154.345H74.755C76.3883 154.345 77.8 154.042 78.99 153.435C80.2033 152.805 81.1367 151.918 81.79 150.775C82.4667 149.632 82.805 148.29 82.805 146.75C82.805 145.187 82.4667 143.845 81.79 142.725C81.1367 141.582 80.2033 140.707 78.99 140.1C77.8 139.47 76.3883 139.155 74.755 139.155H69.575V154.345Z" fill="#202020"/>
<path d="M98.036 144.37H109.831V148.78H98.036V144.37ZM98.456 154.45H111.791V159H92.821V134.5H111.336V139.05H98.456V154.45Z" fill="#202020"/>
<path d="M124.352 159.42C122.392 159.42 120.514 159.163 118.717 158.65C116.921 158.113 115.474 157.425 114.377 156.585L116.302 152.315C117.352 153.062 118.589 153.68 120.012 154.17C121.459 154.637 122.917 154.87 124.387 154.87C125.507 154.87 126.406 154.765 127.082 154.555C127.782 154.322 128.296 154.007 128.622 153.61C128.949 153.213 129.112 152.758 129.112 152.245C129.112 151.592 128.856 151.078 128.342 150.705C127.829 150.308 127.152 149.993 126.312 149.76C125.472 149.503 124.539 149.27 123.512 149.06C122.509 148.827 121.494 148.547 120.467 148.22C119.464 147.893 118.542 147.473 117.702 146.96C116.862 146.447 116.174 145.77 115.637 144.93C115.124 144.09 114.867 143.017 114.867 141.71C114.867 140.31 115.241 139.038 115.987 137.895C116.757 136.728 117.901 135.807 119.417 135.13C120.957 134.43 122.882 134.08 125.192 134.08C126.732 134.08 128.249 134.267 129.742 134.64C131.236 134.99 132.554 135.527 133.697 136.25L131.947 140.555C130.804 139.902 129.661 139.423 128.517 139.12C127.374 138.793 126.254 138.63 125.157 138.63C124.061 138.63 123.162 138.758 122.462 139.015C121.762 139.272 121.261 139.61 120.957 140.03C120.654 140.427 120.502 140.893 120.502 141.43C120.502 142.06 120.759 142.573 121.272 142.97C121.786 143.343 122.462 143.647 123.302 143.88C124.142 144.113 125.064 144.347 126.067 144.58C127.094 144.813 128.109 145.082 129.112 145.385C130.139 145.688 131.072 146.097 131.912 146.61C132.752 147.123 133.429 147.8 133.942 148.64C134.479 149.48 134.747 150.542 134.747 151.825C134.747 153.202 134.362 154.462 133.592 155.605C132.822 156.748 131.667 157.67 130.127 158.37C128.611 159.07 126.686 159.42 124.352 159.42Z" fill="#202020"/>
<path d="M138.622 159V134.5H144.292V159H138.622Z" fill="#202020"/>
<path d="M161.936 159.42C160 159.42 158.215 159.117 156.581 158.51C154.971 157.88 153.56 156.993 152.346 155.85C151.156 154.707 150.223 153.365 149.546 151.825C148.893 150.285 148.566 148.593 148.566 146.75C148.566 144.907 148.893 143.215 149.546 141.675C150.223 140.135 151.168 138.793 152.381 137.65C153.594 136.507 155.018 135.632 156.651 135.025C158.285 134.395 160.081 134.08 162.041 134.08C164.211 134.08 166.16 134.442 167.886 135.165C169.636 135.888 171.106 136.938 172.296 138.315L168.656 141.675C167.77 140.742 166.801 140.053 165.751 139.61C164.701 139.143 163.558 138.91 162.321 138.91C161.131 138.91 160.046 139.097 159.066 139.47C158.086 139.843 157.235 140.38 156.511 141.08C155.811 141.78 155.263 142.608 154.866 143.565C154.493 144.522 154.306 145.583 154.306 146.75C154.306 147.893 154.493 148.943 154.866 149.9C155.263 150.857 155.811 151.697 156.511 152.42C157.235 153.12 158.075 153.657 159.031 154.03C160.011 154.403 161.085 154.59 162.251 154.59C163.371 154.59 164.456 154.415 165.506 154.065C166.579 153.692 167.618 153.073 168.621 152.21L171.841 156.305C170.511 157.308 168.96 158.078 167.186 158.615C165.436 159.152 163.686 159.42 161.936 159.42ZM166.661 155.57V146.365H171.841V156.305L166.661 155.57Z" fill="#202020"/>
<path d="M177.108 159V134.5H181.798L196.253 152.14H193.978V134.5H199.578V159H194.923L180.433 141.36H182.708V159H177.108Z" fill="#202020"/>
<path d="M213.425 159.42C211.465 159.42 209.586 159.163 207.79 158.65C205.993 158.113 204.546 157.425 203.45 156.585L205.375 152.315C206.425 153.062 207.661 153.68 209.085 154.17C210.531 154.637 211.99 154.87 213.46 154.87C214.58 154.87 215.478 154.765 216.155 154.555C216.855 154.322 217.368 154.007 217.695 153.61C218.021 153.213 218.185 152.758 218.185 152.245C218.185 151.592 217.928 151.078 217.415 150.705C216.901 150.308 216.225 149.993 215.385 149.76C214.545 149.503 213.611 149.27 212.585 149.06C211.581 148.827 210.566 148.547 209.54 148.22C208.536 147.893 207.615 147.473 206.775 146.96C205.935 146.447 205.246 145.77 204.71 144.93C204.196 144.09 203.94 143.017 203.94 141.71C203.94 140.31 204.313 139.038 205.06 137.895C205.83 136.728 206.973 135.807 208.49 135.13C210.03 134.43 211.955 134.08 214.265 134.08C215.805 134.08 217.321 134.267 218.815 134.64C220.308 134.99 221.626 135.527 222.77 136.25L221.02 140.555C219.876 139.902 218.733 139.423 217.59 139.12C216.446 138.793 215.326 138.63 214.23 138.63C213.133 138.63 212.235 138.758 211.535 139.015C210.835 139.272 210.333 139.61 210.03 140.03C209.726 140.427 209.575 140.893 209.575 141.43C209.575 142.06 209.831 142.573 210.345 142.97C210.858 143.343 211.535 143.647 212.375 143.88C213.215 144.113 214.136 144.347 215.14 144.58C216.166 144.813 217.181 145.082 218.185 145.385C219.211 145.688 220.145 146.097 220.985 146.61C221.825 147.123 222.501 147.8 223.015 148.64C223.551 149.48 223.82 150.542 223.82 151.825C223.82 153.202 223.435 154.462 222.665 155.605C221.895 156.748 220.74 157.67 219.2 158.37C217.683 159.07 215.758 159.42 213.425 159.42Z" fill="#202020"/>
</svg>
